<?xml version="1.0" encoding="UTF-8" standalone="no"?>
<svg
   xmlns:dc="http://purl.org/dc/elements/1.1/"
   xmlns:cc="http://creativecommons.org/ns#"
   xmlns:rdf="http://www.w3.org/1999/02/22-rdf-syntax-ns#"
   xmlns:svg="http://www.w3.org/2000/svg"
   xmlns="http://www.w3.org/2000/svg"
   xmlns:sodipodi="http://sodipodi.sourceforge.net/DTD/sodipodi-0.dtd"
   xmlns:inkscape="http://www.inkscape.org/namespaces/inkscape"
   inkscape:version="1.0 (4035a4fb49, 2020-05-01)"
   sodipodi:docname="cafe-11.svg"
   id="svg6"
   version="1.1"
   style="-ms-transform: rotate(360deg); -webkit-transform: rotate(360deg); transform: rotate(360deg);"
   viewBox="0 0 11 11"
   preserveAspectRatio="xMidYMid meet"
   height="11"
   width="11">
  <metadata
     id="metadata12">
    <rdf:RDF>
      <cc:Work
         rdf:about="">
        <dc:format>image/svg+xml</dc:format>
        <dc:type
           rdf:resource="http://purl.org/dc/dcmitype/StillImage" />
      </cc:Work>
    </rdf:RDF>
  </metadata>
  <defs
     id="defs10" />
  <sodipodi:namedview
     inkscape:current-layer="svg6"
     inkscape:window-maximized="0"
     inkscape:window-y="0"
     inkscape:window-x="205"
     inkscape:cy="6.3144909"
     inkscape:cx="4.6284686"
     inkscape:zoom="66.818182"
     showgrid="false"
     id="namedview8"
     inkscape:window-height="1019"
     inkscape:window-width="1219"
     inkscape:pageshadow="2"
     inkscape:pageopacity="0"
     guidetolerance="10"
     gridtolerance="10"
     objecttolerance="10"
     borderopacity="1"
     bordercolor="#666666"
     pagecolor="#ffffff" />
  <rect
     style="fill:#e6e6e6"
     id="rect4"
     fill="rgba(0, 0, 0, 0)"
     height="11"
     width="11"
     y="0"
     x="0" />
  <path
     id="path2"
     fill="#626262"
     d="M7 9.5a.5.5 0 0 1-.5.5h-4a.5.5 0 0 1 0-1h4a.5.5 0 0 1 .5.5zM8 3H7V2H2v4a2.5 2.5 0 0 0 4.79 1H8a2 2 0 1 0 0-4zm0 3H7V4h1a1 1 0 1 1 0 2z" />
</svg>
